<svg width="143" height="143" viewBox="0 0 143 143" fill="none" xmlns="http://www.w3.org/2000/svg">
<circle cx="71.5" cy="71.5" r="71.5" fill="#FEDE00"/>
<path fill-rule="evenodd" clip-rule="evenodd" d="M100.107 62.7805C100.481 60.8204 103.094 52.6068 104.401 50.6C105.381 49.1067 104.307 50.04 105.707 49.4333C107.014 55.1269 103.187 61.1004 100.107 62.7805ZM71.2663 76.6876H70.8929C71.1263 72.8142 73.693 66.5606 72.993 63.1538C71.3596 60.8671 68.9795 61.8471 67.7661 63.3872C66.6461 64.8339 65.6661 66.9339 64.966 68.754L65.4327 63.2472C64.126 62.1738 61.9793 62.2204 61.6526 63.1071L61.1392 65.1606C61.0459 65.9539 60.9992 66.7006 60.9059 67.5873C60.7192 69.1274 60.4859 70.8541 60.2525 72.5341C59.8792 75.3342 59.1325 79.7677 59.3192 82.6612L62.5393 82.5678C63.3327 81.4011 64.4527 75.8009 65.1994 73.8409C66.2261 70.9941 67.2995 68.5673 68.4195 66.0473L68.7928 66.8406C68.6995 71.6941 66.2728 76.781 66.4128 82.8012L71.6396 82.5678C72.5263 80.6078 73.2263 77.4343 73.9264 75.1009C74.673 72.6275 75.5597 70.3407 76.3531 68.0073C76.9598 68.894 77.0531 66.8873 76.6331 69.4074C76.6331 73.1408 73.5997 79.161 75.0464 82.3812C79.5266 84.5746 83.12 79.6277 84.8001 78.0877C85.7801 80.8411 86.1535 82.8478 89.7936 82.6145C92.8737 82.4278 93.8071 80.5611 95.1604 78.881C96.6072 80.8411 96.9338 82.2412 99.6873 82.7078C103.467 83.4079 104.121 81.5878 106.127 80.6078C109.208 84.2012 113.688 83.2679 117.375 81.2145C116.208 86.068 109.301 94.2349 106.641 96.7083C104.261 98.8551 102.441 100.535 99.4539 102.542C74.9997 118.969 43.452 111.782 27.1647 86.768C25.718 84.6212 23.9913 79.7677 21.3778 79.3944C19.1844 79.0677 17.8311 80.6078 17.8311 82.6145C17.8311 84.2012 19.0911 86.4413 19.6511 87.608C23.6646 95.7283 30.8048 102.822 38.3184 108.049C56.1457 120.369 79.5732 121.443 99.5006 110.522C123.488 97.2683 134.502 62.7805 124.281 64.5539C119.661 65.3006 122.181 79.021 113.781 80.6078C105.521 82.1945 111.121 64.1805 115.228 65.1139C116.581 67.214 115.041 70.1541 113.874 71.9275C112.708 73.7009 112.521 73.2342 111.494 74.3542C108.881 77.201 114.481 76.921 117.141 71.6474C120.455 65.2072 116.721 59.9337 111.494 63.2472C109.861 64.2739 108.508 66.0939 107.388 68.2407C103.701 75.1942 106.454 76.781 104.074 79.161C97.8672 85.3679 97.0738 70.4341 99.1272 66.6539C99.6873 65.6272 98.9872 66.3273 100.387 65.5806C109.814 60.5871 111.074 46.3532 104.027 47.0066C101.601 47.2399 100.247 50.5534 99.3139 52.6534L95.4404 64.1339C94.0871 65.8139 93.247 63.5272 92.7804 66.4206C93.6671 67.494 94.1337 67.0273 95.0671 67.634C94.7404 69.6407 94.6938 74.2142 94.2271 75.6143C93.6204 77.481 92.1737 79.6744 90.5869 80.2344C85.3134 78.041 91.567 66.7939 90.7736 63.8538C86.1068 61.2871 85.2668 67.4006 84.8001 71.3208C84.3801 74.7276 84.7534 74.4942 82.8867 76.921C81.86 78.321 81.0199 79.5344 78.5932 79.9544C79.2465 72.9542 83.8667 63.5272 79.1065 62.4538C78.0798 62.2204 77.7532 62.3138 76.7731 62.4071C74.9997 64.5072 71.4996 73.3742 71.2663 76.6876ZM91.5203 61.2871C92.9204 59.467 94.0871 57.8336 93.387 55.3135C88.9536 54.0068 87.4135 57.4136 88.8602 61.0537L91.5203 61.2871ZM37.0117 71.1808C35.9384 65.6739 27.9581 67.5873 27.3981 74.7276C25.9047 92.6015 63.146 90.5014 57.1724 72.5808C53.719 62.3605 39.3918 60.1204 38.3651 52.5601C37.4784 46.4932 46.4387 45.7932 51.1056 48.1733C55.5857 50.5067 55.8191 55.2669 46.2054 56.8536C46.2987 64.9272 55.4924 56.1069 56.7058 54.2868C64.826 41.9197 28.8914 37.4396 34.2583 55.5935C36.3584 62.7338 46.0654 66.1406 49.0988 69.594C52.6923 73.6542 53.299 79.4877 48.2121 82.5212C41.1185 86.8146 26.8847 82.0078 31.3649 75.1942C32.8116 73.0008 34.6783 72.5341 36.2184 71.6941C36.7317 71.4141 36.6851 71.4608 37.0117 71.1808Z" fill="black"/>
<path d="M63.656 42H68.312V40.4H65.416V30.8H63.656V42ZM69.156 42H70.916V30.8H69.156V42ZM73.4661 42H75.8021L77.4981 30.8H75.8821L74.7301 39.488H74.6981L73.5461 30.8H71.7701L73.4661 42ZM78.3435 42H83.1435V40.4H80.1035V36.96H82.5195V35.36H80.1035V32.4H83.1435V30.8H78.3435V42ZM88.0945 42H89.8545V32.4H91.6945V30.8H86.2545V32.4H88.0945V42ZM95.0281 42.16C96.7561 42.16 97.7001 41.136 97.7001 39.344V33.456C97.7001 31.664 96.7561 30.64 95.0281 30.64C93.3001 30.64 92.3561 31.664 92.3561 33.456V39.344C92.3561 41.136 93.3001 42.16 95.0281 42.16ZM95.0281 40.56C94.4681 40.56 94.1161 40.256 94.1161 39.456V33.344C94.1161 32.544 94.4681 32.24 95.0281 32.24C95.5881 32.24 95.9401 32.544 95.9401 33.344V39.456C95.9401 40.256 95.5881 40.56 95.0281 40.56Z" fill="#FA2B3A"/>
</svg>
